<?xml version="1.0" encoding="iso-8859-1"?>
<!-- Uploaded to: SVG Repo, www.svgrepo.com, Generator: SVG Repo Mixer Tools -->
<svg height="800px" width="800px" version="1.1" id="Layer_1" xmlns="http://www.w3.org/2000/svg" xmlns:xlink="http://www.w3.org/1999/xlink" 
	 viewBox="0 0 460 460" xml:space="preserve">
<g id="XMLID_920_">
	<path id="XMLID_1469_" style="fill:#9CAFB7;" d="M460,230c0,127.025-102.975,230-230,230S0,357.025,0,230S102.975,0,230,0
		S460,102.975,460,230z"/>
	<path id="XMLID_1470_" style="fill:#8A9249;" d="M460,230c0,36.088-8.32,70.229-23.133,100.625h-38.381
		c-6.187,0-11.681-3.959-13.637-9.829l-37.966-113.897c-1.206-3.617-3.799-6.607-7.209-8.312l-15.478-7.739
		c-4.87-2.435-7.946-7.413-7.946-12.857V164.08c0-3.812,1.515-7.469,4.21-10.165l34.704-34.704c2.696-2.696,6.352-4.21,10.165-4.21
		h42.661c5.445,0,10.422,3.076,12.857,7.946l6.429,12.858c2.435,4.87,7.413,7.946,12.857,7.946h3.13
		C454.047,170.387,460,199.496,460,230z M244.375,230v11.842c0,1.675-0.293,3.338-0.865,4.913l-53.194,146.283
		c-2.066,5.681-7.465,9.462-13.51,9.462h-8.32c-6.187,0-11.681-3.959-13.637-9.829l-37.966-113.897
		c-1.206-3.617-3.799-6.607-7.209-8.312l-15.478-7.739c-4.87-2.435-7.946-7.413-7.946-12.857V192.83
		c0-3.813-1.515-7.469-4.21-10.165L60.315,160.94c-1.842-1.842-4.151-3.149-6.678-3.781l-38.404-9.601
		C45.977,67.521,120.163,9.037,208.923,0.971l19.559,39.119c0.998,1.996,1.518,4.197,1.518,6.429v2.92
		c0,5.008-2.606,9.655-6.879,12.266L211.348,68.9c-3.128,1.912-5.408,4.947-6.373,8.484l-15.211,55.775
		c-1.706,6.254-7.386,10.593-13.868,10.593h-0.699c-1.782,0-3.549-0.331-5.21-0.977l-34.451-13.398v0.001l-26.069,21.469
		c-5.173,4.261-6.716,11.531-3.719,17.525l5.28,10.559c2.435,4.87,7.413,7.946,12.857,7.946h25.356
		c5.445,0,10.422,3.076,12.857,7.946l6.429,12.858c2.435,4.87,7.413,7.946,12.857,7.946H230
		C237.939,215.625,244.375,222.061,244.375,230z M397.012,71.875h-45.73c-3.85,0-7.37,2.175-9.091,5.619l-8.756,17.512
		c-1.722,3.444-5.241,5.619-9.091,5.619h-26.678c-5.614,0-10.165-4.551-10.165-10.165V71.875v-4.21
		c0-5.614,4.551-10.165,10.165-10.165c2.696,0,5.281-1.071,7.188-2.977l8.421-8.421c1.906-1.906,2.977-4.492,2.977-7.187V16.736
		C347.049,29.204,374.534,48.141,397.012,71.875z"/>
</g>
</svg>