<svg xmlns="http://www.w3.org/2000/svg" xmlns:xlink="http://www.w3.org/1999/xlink" width="940" zoomAndPan="magnify" viewBox="0 0 705 591.000005" height="788" preserveAspectRatio="xMidYMid meet" version="1.0"><defs><clipPath id="ff442c9c06"><path d="M 0.59375 0 L 704.402344 0 L 704.402344 590 L 0.59375 590 Z M 0.59375 0 " clip-rule="nonzero"/></clipPath><clipPath id="99c8129947"><path d="M 0.59375 0 L 704.402344 0 L 704.402344 589.964844 L 0.59375 589.964844 Z M 0.59375 0 " clip-rule="nonzero"/></clipPath></defs><g clip-path="url(#ff442c9c06)"></g><g clip-path="url(#99c8129947)"><path fill="#231f20" d="M 689.414062 56.597656 C 689.414062 60.097656 686.578125 62.929688 683.089844 62.929688 L 660.078125 62.929688 C 656.578125 62.929688 653.742188 60.097656 653.742188 56.597656 L 653.742188 20.75 C 653.742188 17.257812 656.578125 14.421875 660.078125 14.421875 L 683.089844 14.421875 C 686.578125 14.421875 689.414062 17.257812 689.414062 20.75 Z M 689.414062 555.699219 C 689.414062 559.191406 686.578125 562.027344 683.089844 562.027344 L 660.078125 562.027344 C 656.578125 562.027344 653.742188 559.191406 653.742188 555.699219 L 653.742188 519.851562 C 653.742188 516.351562 656.578125 513.515625 660.078125 513.515625 L 683.089844 513.515625 C 686.578125 513.515625 689.414062 516.351562 689.414062 519.851562 Z M 602.890625 555.699219 C 602.890625 559.191406 600.054688 562.027344 596.566406 562.027344 L 573.554688 562.027344 C 570.054688 562.027344 567.21875 559.191406 567.21875 555.699219 L 567.21875 519.851562 C 567.21875 516.351562 570.054688 513.515625 573.554688 513.515625 L 596.566406 513.515625 C 600.054688 513.515625 602.890625 516.351562 602.890625 519.851562 Z M 516.367188 555.699219 C 516.367188 559.191406 513.53125 562.027344 510.039062 562.027344 L 487.03125 562.027344 C 483.53125 562.027344 480.695312 559.191406 480.695312 555.699219 L 480.695312 519.851562 C 480.695312 516.351562 483.53125 513.515625 487.03125 513.515625 L 510.039062 513.515625 C 513.53125 513.515625 516.367188 516.351562 516.367188 519.851562 Z M 429.84375 555.699219 C 429.84375 559.191406 427.007812 562.027344 423.515625 562.027344 L 400.507812 562.027344 C 397.007812 562.027344 394.171875 559.191406 394.171875 555.699219 L 394.171875 519.851562 C 394.171875 516.351562 397.007812 513.515625 400.507812 513.515625 L 423.515625 513.515625 C 427.007812 513.515625 429.84375 516.351562 429.84375 519.851562 Z M 343.320312 555.699219 C 343.320312 559.191406 340.484375 562.027344 336.992188 562.027344 L 313.984375 562.027344 C 310.484375 562.027344 307.648438 559.191406 307.648438 555.699219 L 307.648438 519.851562 C 307.648438 516.351562 310.484375 513.515625 313.984375 513.515625 L 336.992188 513.515625 C 340.484375 513.515625 343.320312 516.351562 343.320312 519.851562 Z M 256.792969 555.699219 C 256.792969 559.191406 253.960938 562.027344 250.46875 562.027344 L 227.464844 562.027344 C 223.960938 562.027344 221.128906 559.191406 221.128906 555.699219 L 221.128906 519.851562 C 221.128906 516.351562 223.960938 513.515625 227.464844 513.515625 L 250.46875 513.515625 C 253.960938 513.515625 256.792969 516.351562 256.792969 519.851562 Z M 170.28125 555.699219 C 170.28125 559.191406 167.445312 562.027344 163.945312 562.027344 L 140.9375 562.027344 C 137.4375 562.027344 134.605469 559.191406 134.605469 555.699219 L 134.605469 519.851562 C 134.605469 516.351562 137.4375 513.515625 140.9375 513.515625 L 163.945312 513.515625 C 167.445312 513.515625 170.28125 516.351562 170.28125 519.851562 Z M 83.757812 555.699219 C 83.757812 559.191406 80.921875 562.027344 77.421875 562.027344 L 54.414062 562.027344 C 50.925781 562.027344 48.089844 559.191406 48.089844 555.699219 L 48.089844 519.851562 C 48.089844 516.351562 50.925781 513.515625 54.414062 513.515625 L 77.421875 513.515625 C 80.921875 513.515625 83.757812 516.351562 83.757812 519.851562 Z M 26.128906 505.792969 L 26.128906 70.65625 L 678.871094 70.65625 L 678.871094 505.792969 Z M 48.089844 20.75 C 48.089844 17.257812 50.925781 14.421875 54.414062 14.421875 L 77.421875 14.421875 C 80.921875 14.421875 83.757812 17.257812 83.757812 20.75 L 83.757812 56.597656 C 83.757812 60.097656 80.921875 62.929688 77.421875 62.929688 L 54.414062 62.929688 C 50.925781 62.929688 48.089844 60.097656 48.089844 56.597656 Z M 134.605469 20.75 C 134.605469 17.257812 137.4375 14.421875 140.9375 14.421875 L 163.945312 14.421875 C 167.445312 14.421875 170.28125 17.257812 170.28125 20.75 L 170.28125 56.597656 C 170.28125 60.097656 167.445312 62.929688 163.945312 62.929688 L 140.9375 62.929688 C 137.4375 62.929688 134.605469 60.097656 134.605469 56.597656 Z M 221.128906 20.75 C 221.128906 17.257812 223.960938 14.421875 227.464844 14.421875 L 250.46875 14.421875 C 253.960938 14.421875 256.792969 17.257812 256.792969 20.75 L 256.792969 56.597656 C 256.792969 60.097656 253.960938 62.929688 250.46875 62.929688 L 227.464844 62.929688 C 223.960938 62.929688 221.128906 60.097656 221.128906 56.597656 Z M 307.648438 20.75 C 307.648438 17.257812 310.484375 14.421875 313.984375 14.421875 L 336.992188 14.421875 C 340.484375 14.421875 343.320312 17.257812 343.320312 20.75 L 343.320312 56.597656 C 343.320312 60.097656 340.484375 62.929688 336.992188 62.929688 L 313.984375 62.929688 C 310.484375 62.929688 307.648438 60.097656 307.648438 56.597656 Z M 394.171875 20.75 C 394.171875 17.257812 397.007812 14.421875 400.507812 14.421875 L 423.515625 14.421875 C 427.007812 14.421875 429.84375 17.257812 429.84375 20.75 L 429.84375 56.597656 C 429.84375 60.097656 427.007812 62.929688 423.515625 62.929688 L 400.507812 62.929688 C 397.007812 62.929688 394.171875 60.097656 394.171875 56.597656 Z M 480.695312 20.75 C 480.695312 17.257812 483.53125 14.421875 487.03125 14.421875 L 510.039062 14.421875 C 513.53125 14.421875 516.367188 17.257812 516.367188 20.75 L 516.367188 56.597656 C 516.367188 60.097656 513.53125 62.929688 510.039062 62.929688 L 487.03125 62.929688 C 483.53125 62.929688 480.695312 60.097656 480.695312 56.597656 Z M 567.21875 20.75 C 567.21875 17.257812 570.054688 14.421875 573.554688 14.421875 L 596.566406 14.421875 C 600.054688 14.421875 602.890625 17.257812 602.890625 20.75 L 602.890625 56.597656 C 602.890625 60.097656 600.054688 62.929688 596.566406 62.929688 L 573.554688 62.929688 C 570.054688 62.929688 567.21875 60.097656 567.21875 56.597656 Z M 0.800781 -13.515625 L 0.800781 589.964844 L 704.199219 589.964844 L 704.199219 -13.515625 " fill-opacity="1" fill-rule="nonzero"/></g></svg>