<?xml version="1.0" encoding="UTF-8" standalone="no"?>
<svg
   id="ghost4"
   viewBox="0 0 200 200"
   width="100%"
   height="100%"
   version="1.1"
   sodipodi:docname="ghost3.svg"
   inkscape:version="1.4 (e7c3feb1, 2024-10-09)"
   xmlns:inkscape="http://www.inkscape.org/namespaces/inkscape"
   xmlns:sodipodi="http://sodipodi.sourceforge.net/DTD/sodipodi-0.dtd"
   xmlns="http://www.w3.org/2000/svg"
   xmlns:svg="http://www.w3.org/2000/svg">
  <defs
     id="defs18" />
  <sodipodi:namedview
     id="namedview18"
     pagecolor="#ffffff"
     bordercolor="#111111"
     borderopacity="1"
     inkscape:showpageshadow="0"
     inkscape:pageopacity="0"
     inkscape:pagecheckerboard="1"
     inkscape:deskcolor="#d1d1d1"
     inkscape:zoom="2.6384838"
     inkscape:cx="110.10111"
     inkscape:cy="119.00774"
     inkscape:window-width="1512"
     inkscape:window-height="945"
     inkscape:window-x="0"
     inkscape:window-y="37"
     inkscape:window-maximized="0"
     inkscape:current-layer="ghost4" />
  <g
     id="g2"
     transform="matrix(2.3671294,0,0,2.4412784,-39.098261,-38.317186)">
    <path
       d="m 31.056878,42.212722 c 0.474958,0.0117 1.130342,-1.229396 2.463385,-2.52982 m -2.8109,3.054437 c 0.833721,-0.939747 1.411112,-1.704152 2.429297,-3.005708 m 2.39096,-3.367707 c 1.057649,-0.6205 1.803673,-1.346273 2.855455,-3.241701 m -2.271993,3.497894 C 36.913728,35.603361 37.765467,34.229 38.46398,33.605991 m 2.992239,-2.798502 c 0.888297,-1.182138 1.764139,-2.482301 2.674442,-3.564311 M 41.136078,30.3369 c 0.707045,-0.597968 1.573893,-1.627086 2.791329,-2.825224 M 26.60656,52.935056 c 0.646501,-0.687565 1.749577,-1.43383 2.692336,-3.22135 m -2.406365,3.284496 c 0.486472,-0.443571 1.037396,-1.312325 2.630606,-2.78438 m 2.25244,-3.023301 c 1.173562,-1.025134 2.493414,-2.407743 3.148121,-3.382074 m -2.715079,3.441664 c 0.608243,-1.164727 1.382536,-1.796116 2.609191,-3.135514 m 2.654803,-2.867224 c 0.603609,-1.421447 1.13836,-2.01807 2.387627,-3.46819 m -2.552328,3.373202 c 1.011043,-1.091493 1.809352,-2.389656 2.733796,-3.183697 m 2.905076,-3.236012 c 0.656272,-0.515733 1.467816,-1.864026 2.165714,-2.821354 m -2.56767,2.927147 c 0.685959,-0.658451 1.187572,-0.934547 2.633062,-2.832686 m 2.59832,-2.777059 c 1.237686,-1.576997 1.872852,-2.592094 2.724471,-3.605538 m -2.501249,3.467667 c 0.750772,-1.08918 1.577681,-2.305338 2.247609,-2.993396 M 26.954763,58.534381 c 1.080875,-1.144263 1.89987,-1.821679 2.9916,-3.032741 m -2.789018,3.133855 c 0.819278,-0.884266 1.9422,-1.971903 2.62038,-2.896262 m 2.976526,-2.977291 c 0.876691,-0.755452 1.67382,-1.902799 2.71362,-3.365722 m -3.158297,3.329068 c 0.985952,-1.142401 1.825908,-1.90851 2.573689,-2.898004 m 2.560681,-3.455046 c 0.825207,-0.606805 2.347875,-2.070168 2.554158,-2.825485 m -2.105835,3.016736 c 0.902267,-1.076474 1.545644,-2.139706 2.315272,-2.875809 m 3.064468,-3.066288 c 0.327434,-0.795251 2.061374,-2.330484 2.478001,-3.002158 m -2.729177,2.912636 c 0.717643,-0.488909 1.072875,-1.309202 2.514812,-3.029372 m 2.537788,-2.550097 c 0.657415,-0.687844 1.521891,-2.022121 2.524698,-3.649602 m -2.400223,3.183626 c 0.81822,-0.920673 1.600434,-1.688377 2.751482,-2.812746 m 2.473254,-2.844047 c 1.139674,-1.131195 2.189557,-2.32303 2.809315,-3.23313 m -2.945634,2.865665 c 0.832025,-0.709846 2.043055,-2.045833 2.830709,-2.91883 M 24.99051,67.20939 c 1.113463,-0.80449 2.506976,-2.457486 2.960383,-3.211348 m -2.518704,3.082281 c 0.875447,-1.237662 1.909509,-2.275553 2.369051,-3.250482 m 3.010836,-2.881662 c 0.714814,-1.041112 1.514269,-1.719562 2.258426,-3.203117 m -2.429978,3.150196 c 0.558568,-0.699968 1.170536,-1.25369 2.505658,-3.07501 m 2.310894,-2.470129 c 1.289873,-1.495997 1.334444,-1.528815 2.770434,-3.676145 m -2.46452,3.406278 c 0.775013,-0.878137 1.176006,-1.214463 2.50517,-3.059319 m 2.809101,-2.942661 c 1.280307,-1.159367 1.802665,-2.448364 2.89679,-3.179599 m -3.03944,3.104434 c 1.107087,-1.1389 2.062073,-2.336788 2.902918,-3.277215 m 2.698078,-3.215875 c 0.557858,-0.209386 0.56831,-1.096148 2.65268,-2.455998 m -2.723881,2.790211 c 0.577616,-0.972153 1.618231,-2.284925 2.550492,-3.136952 m 2.664408,-2.820754 c 0.526708,-0.822935 1.186826,-1.996742 2.873465,-3.13988 m -3.176353,3.28312 c 0.561618,-1.05664 1.228789,-1.637519 2.735042,-3.3393 m 2.386086,-2.789765 c 0.620323,-0.751652 1.657812,-1.479042 2.554221,-3.135886 m -2.224204,3.230836 c 0.519722,-0.929283 1.423176,-1.649448 2.625432,-3.040931 M 28.55176,69.034498 c 0.723571,-0.76805 2.346106,-1.980788 2.908295,-2.847029 m -2.787907,2.926762 c 0.942221,-0.86353 1.661669,-1.668542 2.608871,-2.867679 m 2.914315,-3.09251 c 0.295902,-1.075231 1.166089,-1.962799 1.9951,-2.613588 m -2.124168,2.745378 c 0.24154,-0.609044 0.876305,-1.490204 2.322943,-2.929667 m 2.759544,-3.395025 c 1.052456,-0.940148 1.622656,-1.948718 2.565996,-2.393891 m -2.511543,2.777322 c 0.673727,-0.78944 1.027303,-1.533507 2.662342,-3.250584 m 2.305811,-3.067655 c 0.767165,-0.529989 1.806846,-1.796938 3.203156,-2.623363 m -2.816368,2.774304 c 0.643414,-0.945738 1.514737,-1.807521 2.606635,-2.834988 m 2.731089,-3.127969 c 0.317141,-1.109788 0.998844,-1.531923 2.539076,-2.999128 m -2.696023,3.008396 c 0.69419,-1.077515 1.922208,-2.132098 2.619171,-3.234018 m 2.836202,-3.194354 c 0.920693,-0.441271 1.777135,-1.557296 2.598398,-2.811586 m -2.942797,3.056789 c 0.650234,-0.776125 1.582511,-1.404224 2.627721,-2.867039 m 2.753728,-3.043981 c 0.468294,-0.930272 1.272289,-1.249982 2.918934,-3.090053 m -3.027526,3.089488 c 1.010434,-1.018479 1.67234,-2.314902 2.557418,-3.046629 M 31.890792,71.353218 c 0.531127,-0.721716 1.737094,-1.455 2.691113,-2.917828 m -2.419287,3.184221 c 0.876861,-1.335658 1.799004,-2.234779 2.589008,-2.922049 m 2.778829,-3.57595 c 0.880345,-1.057235 1.671923,-1.761472 2.238698,-2.781186 m -2.643647,3.227735 c 0.923295,-0.882644 2.006534,-2.064338 2.728305,-2.999468 m 2.745773,-3.063914 c 0.630872,-0.761623 1.41181,-1.757839 2.230604,-2.877257 m -2.182031,2.926129 c 0.611214,-1.129582 1.532125,-1.891296 2.363773,-3.274902 m 2.341726,-3.013979 c 1.482405,-0.727147 2.242004,-1.751519 3.077931,-2.986705 m -2.847296,3.076145 c 0.957733,-0.79816 2.092232,-2.160509 2.590911,-2.914204 m 2.43514,-3.225755 c 1.542447,-0.979274 2.007246,-1.556523 3.068745,-2.618758 m -2.881716,2.740771 c 1.354537,-0.882864 1.989144,-2.306803 3.00461,-2.816585 m 2.510856,-3.358764 c 0.542926,-0.353781 1.712444,-1.450466 2.206172,-2.561977 m -2.243297,2.698366 c 1.087772,-0.980431 2.086984,-2.370281 2.406059,-3.159546 m 2.888933,-2.686559 c 0.815311,-1.255506 1.470519,-2.097061 2.705103,-3.106616 m -2.714587,3.074204 c 0.496162,-0.759959 1.197124,-1.547196 2.42997,-2.975283 M 33.023452,76.663525 c 0.610408,-1.382165 1.907128,-1.900182 2.797381,-3.340626 m -2.912016,3.037306 c 1.003212,-0.890924 1.677612,-1.9668 2.63049,-3.093553 m 2.598121,-2.531864 c 1.329383,-1.399883 1.701752,-2.880222 3.018922,-2.990621 m -2.924559,2.837736 c 1.199921,-1.359953 2.295647,-2.584008 2.660768,-3.050113 m 2.365597,-3.508803 c 1.004023,-0.279398 1.875495,-1.914178 2.843816,-2.467794 m -2.734194,2.871691 c 1.00457,-0.767761 1.622862,-1.602386 2.932221,-3.187557 m 2.85456,-3.085404 c 0.594335,-0.917738 1.650795,-1.806204 2.590052,-2.965265 m -2.949743,3.20489 c 0.69477,-1.135055 1.681197,-2.058615 2.641812,-2.998995 m 2.916357,-2.992421 c 0.33463,-1.019815 1.023393,-1.97028 2.496369,-3.099667 m -2.794979,2.922063 c 0.972742,-0.943238 1.761899,-1.987457 2.510687,-2.999389 m 2.558133,-3.136019 c 1.331949,-0.39139 1.560182,-1.513816 2.714203,-3.206225 m -2.700778,3.183789 c 0.666126,-0.464288 1.366325,-1.285123 2.837233,-2.904807 m 2.325927,-3.178871 c 1.136731,-0.889302 2.119877,-2.362868 3.193765,-3.079189 m -3.094337,3.157926 c 1.145177,-1.012334 1.904347,-1.985935 2.76975,-2.743886 m 2.596136,-3.046706 c 0.713757,-1.125206 1.307164,-2.115308 2.882627,-3.143431 m -2.905755,3.059725 c 0.839924,-1.002297 1.62871,-1.848514 2.588647,-3.167499 M 35.939824,79.350717 c 1.019753,-1.480024 2.025801,-2.557684 2.537072,-3.194634 m -2.262122,2.713981 c 0.744297,-0.560193 1.348741,-1.777118 2.509169,-2.777909 m 2.908593,-3.426142 c 0.717491,-0.712095 2.010034,-1.962648 1.90894,-2.275265 m -2.230405,2.643573 c 0.456254,-0.706878 1.123555,-1.136155 2.53034,-2.858997 m 2.885514,-3.212341 c 1.013537,-1.339993 1.35664,-1.633994 2.253326,-3.012543 m -2.38814,2.989986 c 0.876246,-1.072352 2.106957,-2.231407 2.782097,-3.033201 m 2.433641,-2.600851 c 0.879349,-1.691792 1.545888,-2.202881 2.295001,-3.476098 m -2.494417,2.978108 c 0.945778,-0.405574 1.450871,-1.348788 2.983044,-3.07943 m 2.764922,-2.974376 c 0.575776,-0.969466 1.681891,-1.389879 2.447229,-2.799576 m -2.777973,2.873539 c 0.688759,-0.59223 1.249603,-1.244418 2.626926,-2.929627 m 2.706087,-2.641772 c 0.566791,-1.637511 1.350079,-1.814125 2.370574,-3.557653 m -2.565577,3.077273 c 1.190398,-0.93944 1.939765,-2.216235 2.68393,-3.034861 m 2.646349,-3.080973 c 1.206494,-1.051202 1.711887,-1.933408 2.538331,-2.873933 M 67.74235,42.74049 c 0.492691,-0.623677 1.450958,-1.657178 2.489422,-3.005107 m 2.800259,-2.865594 c 0.473894,-1.012343 2.015531,-2.374215 2.165276,-3.377072 m -2.253715,3.30005 c 0.864259,-0.839307 1.588184,-2.19839 2.304774,-3.011594 M 39.194855,81.029304 c 0.936117,-1.050873 2.651146,-2.113187 2.565403,-2.444278 m -2.483414,2.894944 c 0.694649,-0.686418 1.417825,-1.641966 2.872021,-3.309717 m 2.782633,-3.008523 c 0.600426,-1.169057 1.703499,-1.987028 2.384463,-2.858705 m -2.625258,3.003359 c 0.441296,-0.786137 1.153691,-1.599097 2.739458,-2.951576 m 2.69275,-3.204984 c 0.474657,-0.817286 0.709962,-1.469367 2.381297,-2.947388 m -2.728707,3.008102 c 0.819281,-0.953036 1.669552,-1.610523 2.709027,-3.091347 m 2.608151,-3.300382 c 0.524991,-0.283547 1.193861,-0.698138 2.610733,-2.828514 m -2.520595,3.388281 c 0.538751,-0.832544 1.486337,-1.676405 2.735856,-3.368853 m 2.271845,-2.66555 c 1.336634,-1.618156 1.904989,-2.624545 2.685003,-3.616797 m -2.350883,3.472529 c 0.606383,-0.752865 1.137549,-1.566133 2.38043,-2.964428 m 3.010659,-3.063352 c 0.453966,-0.960355 2.172051,-2.522834 1.993926,-3.401041 m -2.338023,3.266212 c 1.107764,-0.821362 1.721402,-1.837535 2.633178,-3.022936 m 2.332618,-3.129585 c 1.101987,-0.969583 2.127458,-1.703081 3.104749,-2.674097 m -2.86013,2.800918 c 0.928593,-0.951682 1.800884,-1.668262 2.901222,-3.082055 m 2.85255,-2.951424 c 0.969141,-1.149167 1.525195,-2.169644 2.020421,-2.981587 m -2.324225,2.876317 c 0.682663,-0.792743 1.207971,-1.308328 2.541057,-2.860069 M 43.350268,82.974589 c 0.721563,-1.018294 1.607117,-1.888827 2.489348,-2.499586 m -2.891402,2.839792 c 1.27063,-1.398159 2.16862,-2.277782 2.823743,-3.281741 m 2.913548,-2.663467 c 0.685653,-1.288122 0.952158,-1.837814 2.243386,-3.077429 m -2.533533,2.724798 c 0.792299,-0.877811 1.140544,-1.50785 2.644464,-3.093913 m 2.597359,-3.214174 c 0.691335,-0.588158 1.150149,-1.641118 2.648666,-2.45666 m -2.60878,2.643986 c 0.439582,-0.756946 1.143497,-1.188662 2.650168,-2.986959 m 2.699455,-2.949703 c 0.730185,-1.181103 1.585381,-1.742474 2.808622,-2.549016 m -3.186519,2.735008 c 0.977674,-1.272319 2.139059,-2.284827 2.929142,-3.138854 m 2.190071,-2.773477 c 1.17082,-1.061698 2.009674,-2.247969 3.067645,-2.965375 m -2.824414,2.775584 c 0.792945,-0.729425 1.084232,-1.134585 2.57345,-2.852701 m 2.690389,-2.901519 c 0.568545,-1.176546 1.422952,-2.398017 2.748911,-3.151562 m -2.506972,2.934557 c 0.634736,-0.892236 1.340245,-1.894092 2.382795,-3.298404 m 2.750064,-3.07741 c 0.477716,-0.285439 1.86555,-1.218605 2.178911,-2.826936 m -2.33908,2.95194 c 0.785005,-1.000949 1.840702,-1.792751 2.634894,-2.746827 m 3.048098,-3.316034 c 0.182766,-0.598637 1.462039,-1.948964 2.206177,-2.827506 m -2.679823,2.777121 c 1.18221,-1.029515 1.822641,-2.006685 2.833619,-2.89426 m -36.408983,47.77994 c 0.915046,-1.402046 1.870707,-2.36943 3.148472,-3.223561 m -2.950582,3.032984 c 1.172308,-1.224031 1.849554,-2.388483 2.618228,-2.932494 m 2.628414,-2.848995 c 1.244728,-1.269149 1.805118,-2.506263 2.360535,-3.028171 m -2.063177,2.846745 c 0.698419,-0.962004 1.360974,-1.637249 2.457612,-3.013341 m 2.363471,-3.029897 c 1.132744,-0.618461 1.635782,-1.877604 3.175192,-3.379198 m -2.90585,3.256812 c 0.67631,-0.867222 1.501001,-1.632376 2.50955,-2.956245 m 2.347375,-3.037553 c 1.301901,-1.014786 1.490486,-1.548568 3.237512,-3.143388 m -2.78918,3.235419 c 0.648394,-0.966868 1.740518,-1.982218 2.530274,-2.919077 m 2.981035,-3.566056 c 0.735297,-0.344897 1.18891,-1.496083 2.03317,-2.75661 m -2.336252,3.178167 c 0.827245,-0.869372 1.610465,-2.128704 2.6451,-2.877758 m 2.679297,-3.571951 c 0.491943,-0.232215 0.801643,-1.169609 2.43256,-3.015607 m -2.480271,3.380981 c 0.489418,-0.605447 1.031097,-1.458508 2.678781,-3.199216 m 2.572793,-2.624751 c 0.558801,-0.799077 1.502492,-2.045831 2.277864,-3.201016 m -2.256269,3.029544 c 0.57516,-0.721039 0.947546,-1.170004 2.533053,-3.084644 m 2.26436,-3.065795 c 1.29792,-0.734611 2.30541,-2.120785 2.752292,-2.811322 m -2.260148,3.049818 c 0.399522,-0.963364 1.144038,-1.689074 2.484364,-3.169397 M 52.782451,84.632596 c 0.432883,-0.810444 0.808607,-1.790011 2.251543,-3.402874 m -2.417304,3.171696 c 0.762229,-1.030468 1.365584,-1.935647 2.914358,-3.220394 m 2.174438,-2.593927 c 0.76673,-0.981803 2.323054,-2.360941 3.279949,-3.691464 m -2.843521,3.290836 c 0.620421,-0.841149 1.092003,-1.181735 2.611917,-2.843489 m 2.461956,-3.518953 c 0.915246,-0.275192 1.730589,-1.724576 3.001329,-2.66428 m -2.827156,2.836436 c 0.428969,-0.920675 1.435436,-1.63416 2.452662,-2.90625 m 2.93798,-3.191302 c 0.626706,-1.216389 2.050843,-1.932118 2.105469,-2.4321 m -2.46895,2.848258 c 0.780259,-0.780071 1.31132,-1.405645 2.775065,-3.341213 M 73.36017,60.17156 c 1.7186,-1.188071 2.2934,-2.438741 2.599772,-3.370578 m -2.0866,3.134385 c 0.337084,-0.370217 0.975283,-1.204191 2.424969,-2.752599 m 2.4338,-2.816902 c 1.34109,-1.236512 1.988255,-1.87145 2.794034,-3.356924 m -2.718873,3.073947 c 1.127279,-1.042012 1.71515,-1.679333 2.676106,-2.925838 m 2.661413,-2.909243 c 0.861005,-0.68125 0.934275,-1.477377 2.586385,-2.878362 m -2.670084,2.552439 c 0.852203,-0.540152 1.388207,-0.97336 2.630228,-2.927333 m -30.140803,41.44389 c 0.444833,-1.038026 1.899182,-2.845467 2.515217,-3.031496 m -2.53517,2.788018 c 0.769074,-0.835661 1.431803,-1.686943 2.343928,-3.249621 m 2.878865,-2.610392 c 0.553404,-1.294845 1.452823,-1.683447 2.821596,-3.571387 m -2.9429,3.500224 c 1.095282,-1.241537 2.231709,-2.514665 2.627077,-3.098114 m 2.480311,-2.729015 c 0.653893,-0.752313 1.717102,-2.163428 3.168347,-3.338422 m -3.119865,3.041221 c 1.147747,-1.249062 1.935895,-2.015608 2.877718,-3.060336 m 2.619139,-3.319826 c 0.4058,-0.107267 0.661438,-1.003363 2.400875,-2.44324 m -2.353624,2.522519 c 0.707697,-0.520291 1.556859,-1.737747 2.557662,-2.899059 m 2.514992,-3.052395 c 0.804958,-0.941723 1.422716,-1.524142 2.492684,-2.541572 m -2.432991,2.619212 c 0.733032,-0.958106 1.310235,-1.916965 2.617596,-3.004797 m 2.294683,-3.171818 c 1.188227,-0.664144 1.841985,-1.94584 2.811832,-3.152422 m -2.659355,3.295937 c 0.785645,-0.524827 1.387357,-1.33017 2.779817,-2.857684 m 2.532202,-2.993709 c 0.822835,-0.74492 1.684837,-1.823986 2.572896,-3.227368 m -2.384776,3.249292 c 0.690692,-1.271983 1.830064,-2.425832 2.517428,-3.030679 M 63.429122,84.446194 c 0.351428,-1.141187 1.046092,-1.934014 1.95811,-2.874589 m -2.1624,3.194964 c 0.528365,-1.057723 1.593955,-2.196616 2.319926,-3.150956 m 2.500274,-3.244042 c 0.837322,-1.202868 2.049546,-1.583325 2.571163,-2.858773 m -2.194848,2.976356 c 0.635325,-0.551135 1.334643,-1.420983 2.527708,-3.103382 m 2.780094,-3.186674 c 0.145423,-0.07197 1.305092,-1.12118 2.73069,-2.529494 m -2.82657,2.854383 c 0.611156,-0.709356 1.231954,-1.501505 2.38189,-2.943402 m 2.923684,-3.36705 c 0.843706,-0.673388 1.988968,-2.160531 2.855041,-3.095273 m -3.020478,3.358105 c 1.122717,-1.171127 2.155553,-2.345713 2.603147,-2.806298 m 2.793229,-3.112148 c 0.855875,-1.172921 1.654887,-2.093405 2.604503,-3.487162 m -2.663904,3.281567 c 0.544866,-0.494571 0.80009,-1.281963 2.429097,-2.779508 M 89.45678,54.43868 c 0.335167,-1.310794 1.736912,-1.768462 2.647746,-3.276234 m -2.714208,3.430969 c 0.964956,-1.347966 1.606863,-2.222351 2.650801,-3.352483 M 70.276831,83.038769 c 0.0325,-1.159394 1.28124,-1.60288 1.986611,-3.602843 m -2.373195,3.28245 c 1.158988,-0.923179 1.792755,-2.212269 2.649,-3.12745 m 2.895915,-2.879633 c 0.614235,-1.012984 1.897774,-2.200375 2.364478,-3.102132 m -2.672517,3.111517 c 0.928944,-1.029559 1.514877,-1.864786 2.639073,-3.214086 m 2.475239,-2.887827 c 1.302626,-0.704638 2.509305,-2.278323 2.532778,-3.250218 m -2.24552,3.206811 c 0.720487,-0.562749 1.150873,-1.464775 2.676489,-2.814248 m 2.809481,-3.412456 c 0.228247,-0.04579 0.743078,-1.26185 2.196076,-2.949699 m -2.548577,3.032116 c 0.648972,-0.541569 1.233535,-1.352846 2.715547,-2.848122 m 2.42255,-2.8867 c 0.690808,-0.523148 1.601368,-1.999805 2.600549,-2.985893 m -2.446636,2.738592 c 0.542101,-0.559792 1.427687,-1.545658 2.729986,-2.903233 m -17.46453,25.976009 c 0.798428,-1.43862 2.009248,-2.034269 2.910647,-3.265763 m -2.870734,3.331756 c 0.643017,-0.885697 1.582343,-1.749663 2.818064,-3.042297 m 2.463127,-3.384885 c 0.619586,-0.472508 1.395128,-1.550976 2.961784,-2.963823 m -2.880856,3.456583 c 0.62518,-0.991641 1.369778,-2.107228 2.416214,-3.267966 m 2.820152,-2.973605 c 1.029137,-0.82535 1.54987,-2.452237 2.381347,-3.12337 m -2.483248,3.204181 c 0.701176,-0.772365 1.064131,-1.201894 2.493635,-2.905879 m 2.470434,-3.043629 C 93.218287,62.132618 93.81012,61.599199 94.32313,60.6265 m -2.311596,2.724871 c 1.190648,-1.198738 2.035895,-2.251875 2.488872,-2.740991 M 80.999793,82.086976 c 1.056255,-1.169751 2.19573,-2.004523 3.268795,-3.544443 m -3.156352,3.366649 c 0.626923,-0.489557 1.090708,-1.480638 2.972392,-3.142632 m 2.658034,-2.580813 c 0.789055,-1.80051 1.928984,-2.437618 2.546725,-2.98443 m -2.869294,2.509353 c 0.955606,-0.765329 1.383778,-1.626039 2.799953,-3.031807 m 2.541799,-2.95463 c 0.761043,-0.742563 1.450021,-1.242287 2.774267,-3.214128 m -2.593003,3.316978 c 0.870645,-0.982396 1.617,-1.793487 2.300224,-3.091487"
       stroke="#d3212d"
       stroke-width="2px"
       fill="none"
       id="path1" />
    <path
       d="m 29.243565,79.830719 m 0.664127,0.661589 C 20.371884,70.214231 19.355753,52.575261 24.476042,42.695538 m 7.221122,39.362371 C 22.233598,72.409106 20.578373,53.509101 24.040765,43.376116 m 1.805389,0.0085 C 32.927626,34.139863 38.758695,24.838755 49.101393,23.713452 M 24.061873,42.398229 C 30.406954,32.789956 38.967722,25.669731 50.826477,26.238181 M 50.030769,24 c 9.302059,-0.487035 23.926759,2.499842 30.38045,6.635364 M 49.116902,24.074296 c 8.053203,-2.495867 27.20937,-1.27184 31.348055,8.64017 m 1.504274,-1.883697 c 8.443805,5.558612 17.0143,23.420013 16.688675,36.307181 M 80.497854,29.143889 c 6.355716,7.121264 19.776536,26.526952 16.294984,38.720928 m 0.130239,-1.772509 C 93.213662,81.534288 73.769484,86.249714 60.669854,86.636634 M 97.720933,66.956555 C 94.509232,79.237973 73.794173,85.052919 57.811594,89.626292 m 1.819175,-2.1186 C 51.314434,89.451808 37.211,88.019124 30.968969,79.489285 m 30.411261,6.11089 c -13.14346,3.797803 -26.211281,1.699841 -30.304857,-3.51458 m -1.167681,-1.593287 c 0,0 0,0 0,0 m 0,0 c 0,0 0,0 0,0"
       stroke="#000000"
       stroke-width="1"
       fill="none"
       id="path2" />
  </g>
  <g
     id="g4"
     transform="matrix(2.3671294,0,0,2.4412784,-39.098261,-38.317186)">
    <path
       d="m 38.217565,66.41329 19.661653,1.682567 21.459357,-3.71421"
       stroke="none"
       stroke-width="0px"
       fill="#ffffff"
       id="path3" />
    <path
       d="m 34.632841,66.708179 m 1.73639,-0.431256 c -0.346001,1.028429 15.018008,1.527725 23.726372,1.869347 M 37.919231,66.03976 c 0.41901,0.866016 13.228959,2.935062 22.746825,-1.471605 m -2.142979,2.077999 c 5.665989,-2.086203 20.048641,-1.167317 19.488082,-3.61011 m -18.778358,4.408774 c 7.438539,0.377786 19.539197,-1.311699 19.94958,-2.916098"
       stroke="#000000"
       stroke-width="1"
       fill="none"
       id="path4" />
  </g>
  <g
     id="g6"
     transform="matrix(2.3671294,0,0,2.4412784,-39.098261,-38.317186)">
    <path
       d="m 36.96376,65.805471 2.242081,-6.626447 1.990451,-0.616486 2.224871,0.981371 1.899637,6.533977 3.262925,-6.797807 2.518341,-0.47499 1.514833,0.587571 1.635604,6.001994 4.757961,-5.83594 1.320108,-0.919153 2.229674,1.672015 1.473644,4.342867 3.580678,-4.467786 0.651914,-0.776707 1.654385,1.072837 2.180858,4.93591 2.023468,-6.380027 1.326043,-0.400535 2.343427,0.34274 2.013031,5.52375"
       stroke="none"
       stroke-width="0px"
       fill="#ffffff"
       id="path5" />
    <path
       d="m 36.417484,65.814975 m -0.04825,0.461948 c -0.38533,-0.280221 1.979133,-7.351445 4.586153,-7.293797 m -4.481988,7.023415 c 0.241593,0.877475 1.437125,-8.179534 4.541199,-8.048786 m 0.523867,0.565322 c 2.573707,0.169274 3.618001,6.422506 3.952338,7.542499 m -3.879546,-7.863293 c 2.159784,0.43943 3.828479,7.791398 3.177946,7.892231 m 0.626185,-0.556052 c -0.430887,0.461857 2.940518,-7.552591 6.324462,-6.356232 m -5.831452,6.952067 c -0.03524,-1.004006 2.543759,-7.802342 4.962304,-7.588035 m 0.452378,0.16143 c 2.617794,0.716678 2.62269,7.044994 2.630463,6.554601 m -2.628747,-6.571596 c 2.883812,0.336936 3.212775,6.503231 3.249437,6.726031 m -0.481922,-0.06288 c -0.520433,-0.110805 3.189632,-7.310339 7.237351,-6.092219 m -7.010136,6.283382 c -0.201244,0.04738 3.482184,-6.800601 6.034203,-6.38455 m 0.384736,-0.08354 c 2.125429,0.179925 2.940482,5.983363 4.056444,6.312746 M 60.30946,59.473111 c 2.429134,-0.598615 4.557426,5.094417 3.991794,5.692019 m -0.0551,0.0041 c -0.29404,-0.289074 1.492024,-6.093456 4.482519,-6.492043 m -4.847013,6.503605 c -0.146256,0.442734 2.73558,-6.407996 4.9942,-6.157573 m -0.01432,0.0537 c 2.190379,-0.376952 3.06259,6.492881 3.869349,6.581064 M 69.40109,59.003064 c 2.27293,0.52312 2.671456,6.043424 3.131017,6.371533 m -0.162876,0.34848 c -0.47261,-0.219073 0.892056,-7.669619 3.546608,-7.190901 m -4.006218,7.651419 c -0.04263,-0.181023 1.795273,-7.431084 4.654393,-8.012925 m -0.687091,0.167792 c 2.677812,0.388383 3.497521,6.55996 3.546808,6.702438 m -3.066635,-6.987829 c 2.593936,0.433266 3.140043,7.309704 3.622597,6.635172"
       stroke="#000000"
       stroke-width="1"
       fill="none"
       id="path6" />
  </g>
  <g
     id="g8"
     transform="matrix(2.3671294,0,0,2.4412784,-39.098261,-38.317186)">
    <path
       d="m 45.497778,37.775995 c 1.378043,0.09658 3.268586,1.383022 4.386602,2.535872 1.118015,1.15285 2.126621,2.912114 2.321491,4.381229 0.194871,1.469116 -0.200496,3.268176 -1.152267,4.433467 -0.95177,1.165291 -3.031901,2.153405 -4.558358,2.558279 -1.526458,0.404875 -3.294539,0.540795 -4.600387,-0.129033 -1.305849,-0.669829 -2.59214,-2.485028 -3.234706,-3.889938 -0.642566,-1.404909 -1.046453,-3.102272 -0.620691,-4.539517 0.425762,-1.437246 1.880488,-3.273917 3.175265,-4.083955 1.294777,-0.810039 3.775218,-0.601078 4.593397,-0.776275 0.818179,-0.175196 0.320605,-0.356874 0.315677,-0.274902 m -0.775365,0.331016 c 1.418605,-0.08625 3.223133,0.410958 4.378463,1.378356 1.155331,0.967397 2.27738,2.916373 2.55352,4.426029 0.276141,1.509656 -0.08033,3.343659 -0.896677,4.631906 -0.816351,1.288247 -2.420801,2.646747 -4.001426,3.097577 -1.580626,0.450829 -4.050133,0.143482 -5.482326,-0.392598 -1.432192,-0.53608 -2.491099,-1.513864 -3.110829,-2.823884 -0.61973,-1.31002 -0.880574,-3.448312 -0.60755,-5.036236 0.273025,-1.587923 1.077866,-3.594516 2.245697,-4.491304 1.167831,-0.896789 3.998559,-0.769437 4.76129,-0.889428 0.762732,-0.119991 -0.181498,0.105845 -0.184901,0.169483"
       stroke="none"
       stroke-width="0px"
       fill="#ffffff"
       id="path7" />
    <path
       d="m 44.870275,37.939897 c 1.414074,-0.15234 3.399637,0.6216 4.555765,1.586392 1.156128,0.964793 2.061038,2.69922 2.381003,4.202364 0.319965,1.503144 0.250246,3.514586 -0.461215,4.8165 -0.711461,1.301914 -2.42749,2.42484 -3.80755,2.994984 -1.38006,0.570143 -3.000248,0.881935 -4.47281,0.425877 -1.472563,-0.456058 -3.504856,-1.844227 -4.362564,-3.162225 -0.857709,-1.317998 -1.074032,-3.270624 -0.783688,-4.745763 0.290343,-1.475138 1.345864,-3.071265 2.525749,-4.105068 1.179884,-1.033802 3.771738,-1.816765 4.553556,-2.097746 0.781817,-0.280982 0.150809,0.253996 0.13735,0.411859 m -1.232236,-0.524637 c 1.435843,-0.367255 3.780433,0.146337 5.069968,0.950273 1.289535,0.803937 2.25294,2.372863 2.667243,3.873348 0.414303,1.500485 0.427431,3.68454 -0.181425,5.129562 -0.608855,1.445023 -2.164824,2.873972 -3.471707,3.540572 -1.306883,0.6666 -2.988466,0.765617 -4.369591,0.459029 -1.381126,-0.306588 -2.989132,-1.104607 -3.917162,-2.298559 -0.928029,-1.193951 -1.645319,-3.34043 -1.651015,-4.865151 -0.0057,-1.52472 0.626266,-3.130997 1.616837,-4.283172 0.990571,-1.152176 3.514963,-2.231543 4.326591,-2.629882 0.811628,-0.398338 0.542897,0.129799 0.543178,0.239849"
       stroke="#000000"
       stroke-width="0.7px"
       fill="none"
       id="path8" />
  </g>
  <g
     id="g10"
     transform="matrix(2.3671294,0,0,2.4412784,-39.098261,-38.317186)">
    <path
       d=""
       stroke="#000000"
       stroke-width="0.45px"
       fill="none"
       id="path9" />
    <path
       d="m 44.627004,44.964055 c 0.351208,0.142235 1.223943,0.186243 1.362072,0.208712 0.138129,0.02247 -0.538264,-0.151483 -0.533297,-0.07389 0.005,0.07759 0.784012,0.284021 0.563097,0.539425 -0.220916,0.255404 -1.498018,1.033493 -1.888588,0.992998 -0.39057,-0.0405 -0.526289,-1.101065 -0.454832,-1.235972 0.07146,-0.134906 0.971053,0.469999 0.883576,0.426533 -0.08748,-0.04347 -1.47661,-0.551148 -1.408436,-0.687332 0.06817,-0.136184 1.424878,0.126833 1.817483,-0.129772 0.392604,-0.256605 0.314389,-1.137525 0.538145,-1.409857 0.223756,-0.272331 0.720264,-0.46614 0.804391,-0.224131 m -2.456545,0.300834 c -0.0471,0.293054 0.391753,1.605744 0.719939,2.00003 0.328186,0.394285 1.182881,0.582093 1.249176,0.365683 0.06629,-0.216409 -0.601457,-1.51188 -0.851406,-1.664142 -0.249949,-0.152262 -0.480667,0.297209 -0.648288,0.750572 -0.167621,0.453364 -0.319931,1.769566 -0.357439,1.969608 -0.03751,0.200041 -0.07143,-0.264826 0.13239,-0.769357 0.203823,-0.504532 0.8055,-2.084861 1.090548,-2.25783 0.285048,-0.172969 0.476578,1.370757 0.61974,1.220014 0.143162,-0.150743 0.315719,-1.906272 0.239234,-2.124474 -0.07649,-0.218202 -0.731484,0.630326 -0.698149,0.815262"
       stroke="#000000"
       stroke-width="0.9px"
       fill="none"
       id="path10" />
  </g>
  <g
     id="g12"
     transform="matrix(2.3671294,0,0,2.4412784,-39.098261,-38.317186)">
    <path
       d="m 74.100994,38.172205 c 1.405794,-0.271787 3.427203,0.354706 4.703141,1.186353 1.275938,0.831647 2.499104,2.443479 2.952488,3.803528 0.453383,1.360049 0.31552,3.032276 -0.232187,4.356765 -0.547707,1.324489 -1.694464,2.921738 -3.054057,3.590168 -1.359593,0.66843 -3.642439,0.689569 -5.1035,0.420412 -1.461061,-0.269157 -2.772048,-0.853706 -3.662869,-2.035355 -0.89082,-1.18165 -1.730737,-3.489188 -1.682053,-5.054543 0.04868,-1.565356 0.968442,-3.241497 1.974153,-4.337592 1.005711,-1.096094 3.345221,-1.94811 4.060113,-2.238975 0.714891,-0.290866 0.181281,0.36627 0.229234,0.493785 m 1.526435,-0.469664 c 1.496562,0.143712 3.267332,1.457557 4.268803,2.560857 1.001471,1.103301 1.697319,2.656941 1.740024,4.058946 0.04271,1.402005 -0.674918,3.174094 -1.483791,4.353084 -0.808872,1.178989 -1.945808,2.342284 -3.369444,2.720853 -1.423635,0.378569 -3.761321,0.09625 -5.172367,-0.449437 -1.411045,-0.545692 -2.720136,-1.575592 -3.293907,-2.824712 -0.57377,-1.249121 -0.51694,-3.162444 -0.148714,-4.670012 0.368226,-1.507569 1.11373,-3.521893 2.35807,-4.375397 1.24434,-0.853504 4.263308,-0.647203 5.10797,-0.745628 0.844661,-0.09842 -0.01624,0.04712 -0.04,0.155081"
       stroke="none"
       stroke-width="0px"
       fill="#ffffff"
       id="path11" />
    <path
       d="m 73.98991,38.334329 c 1.437115,-0.264549 3.41977,-0.02978 4.708825,0.70614 1.289054,0.735923 2.568905,2.305678 3.025502,3.709396 0.456597,1.403718 0.314169,3.282322 -0.28592,4.712914 -0.600088,1.430592 -1.971528,3.188059 -3.314611,3.870636 -1.343084,0.682577 -3.270999,0.520569 -4.743891,0.224825 C 71.906923,51.262496 70.180153,50.642707 69.286353,49.558953 68.392554,48.4752 67.959632,46.60386 68.01702,45.05572 c 0.05739,-1.548141 0.635525,-3.609385 1.613659,-4.78561 0.978135,-1.176224 3.50096,-1.904972 4.255147,-2.271736 0.754186,-0.366765 0.231465,-0.06581 0.26997,0.07115 m -0.05374,-0.167879 c 1.440579,-0.26778 3.838674,0.325453 5.059498,1.182908 1.220823,0.857456 1.922368,2.500783 2.265443,3.961825 0.343075,1.461042 0.291496,3.46301 -0.206994,4.804427 -0.49849,1.341416 -1.49317,2.610982 -2.783947,3.244074 -1.290777,0.633091 -3.404971,0.923706 -4.960715,0.554473 -1.555744,-0.369232 -3.481568,-1.569426 -4.373747,-2.769868 -0.89218,-1.200442 -1.189865,-3.004925 -0.979328,-4.432782 0.210537,-1.427857 1.191838,-3.043147 2.24255,-4.134357 1.050711,-1.09121 3.437182,-2.0799 4.061718,-2.412902 0.624536,-0.333002 -0.316771,0.312469 -0.314504,0.414891"
       stroke="#000000"
       stroke-width="0.7px"
       fill="none"
       id="path12" />
  </g>
  <g
     id="g14"
     transform="matrix(2.3671294,0,0,2.4412784,-39.098261,-38.317186)">
    <path
       d=""
       stroke="#000000"
       stroke-width="0.45px"
       fill="none"
       id="path13" />
    <path
       d="m 74.534287,44.65411 c -0.08657,-0.07351 -0.08243,-1.387177 0.127037,-1.486781 0.209468,-0.09961 1.034432,0.64906 1.129768,0.889153 0.09534,0.240093 -0.545589,0.258366 -0.557753,0.551407 -0.01216,0.293041 0.668074,0.928784 0.484773,1.206839 -0.183301,0.278056 -1.485877,0.455685 -1.58458,0.461494 -0.0987,0.0058 1.170625,-0.217824 0.992362,-0.42664 -0.178263,-0.208817 -1.956259,-0.473145 -2.06194,-0.826258 -0.10568,-0.353112 1.200048,-1.284209 1.427857,-1.292417 0.22781,-0.0082 -0.155432,1.132403 -0.061,1.243168 0.09443,0.110765 0.523929,-0.464389 0.627585,-0.57858 m 0.765041,1.045557 c -0.06343,0.228916 -1.100108,-0.667368 -1.053974,-0.707927 0.04613,-0.04056 1.078899,0.387075 1.330777,0.464574 0.251878,0.0775 0.08484,0.03227 0.18049,4.15e-4 0.09565,-0.03185 0.37616,-0.308214 0.393398,-0.191536 0.01724,0.116679 0.07229,0.951989 -0.289974,0.891607 -0.362263,-0.06038 -1.484446,-1.078679 -1.8836,-1.253899 -0.399155,-0.17522 -0.380883,0.0601 -0.511329,0.20258 -0.130445,0.142483 -0.290788,0.935788 -0.271345,0.652319 0.01944,-0.28347 0.180384,-2.214842 0.388004,-2.353135 0.20762,-0.138292 0.974836,1.587535 0.857716,1.523382"
       stroke="#000000"
       stroke-width="0.9px"
       fill="none"
       id="path14" />
  </g>
  <g
     id="g16"
     transform="matrix(2.3671294,0,0,2.4412784,-39.098261,-38.317186)">
    <path
       d="m 60.565391,35.60726 c 1.958349,0.04479 4.843932,1.243627 6.307136,2.69154 1.463203,1.447914 2.277827,3.928746 2.472084,5.995941 0.194257,2.067195 -0.175685,4.737341 -1.306543,6.40723 -1.130858,1.669889 -3.467253,3.166634 -5.478605,3.612105 -2.011352,0.44547 -4.672986,-0.07556 -6.589507,-0.939282 -1.91652,-0.863722 -4.09004,-2.460835 -4.909618,-4.243051 -0.819577,-1.782216 -0.543215,-4.472106 -0.0078,-6.450246 0.53537,-1.978141 1.573286,-4.270378 3.220064,-5.418599 1.646777,-1.148221 5.485395,-1.234792 6.660603,-1.470728 1.175207,-0.235936 0.393991,-0.0893 0.390641,0.05511 m -2.494089,0.02735 c 1.956292,-0.476135 4.476161,-0.110332 6.252412,0.887863 1.776251,0.998196 3.792568,3.127122 4.405096,5.10131 0.612528,1.974188 0.153306,4.878292 -0.729925,6.743819 -0.883232,1.865527 -2.721819,3.509586 -4.569466,4.449342 -1.847647,0.939757 -4.575077,1.590541 -6.516415,1.189195 -1.941337,-0.401345 -3.876957,-1.945109 -5.131609,-3.597267 -1.254652,-1.652157 -2.541263,-4.361111 -2.396304,-6.315678 0.144959,-1.954567 1.824943,-3.951539 3.266058,-5.411725 1.441116,-1.460186 4.438364,-2.870153 5.380633,-3.349392 0.94227,-0.479239 0.222418,0.369956 0.272985,0.473958"
       stroke="none"
       stroke-width="0px"
       fill="#ffffff"
       id="path15" />
    <path
       d="m 58.982029,35.550585 c 1.837322,-0.261936 4.445576,0.586224 6.156198,1.745475 1.710623,1.159252 3.503846,3.235274 4.107536,5.210034 0.60369,1.974759 0.398037,4.832178 -0.485394,6.638525 -0.883432,1.806347 -2.926635,3.388798 -4.815196,4.199557 -1.888561,0.810759 -4.540685,1.101445 -6.516172,0.664997 -1.975487,-0.436448 -4.163571,-1.641492 -5.336751,-3.283683 -1.17318,-1.642192 -1.850334,-4.52678 -1.702327,-6.569466 0.148007,-2.042685 1.123141,-4.288438 2.590367,-5.686649 1.467226,-1.398211 5.144611,-2.201456 6.21299,-2.702615 1.068378,-0.501159 0.213727,-0.407519 0.197283,-0.30434 m 0.09469,-0.145325 c 1.902659,-0.20513 5.068786,0.748869 6.757784,2.084557 1.688997,1.335688 3.002671,3.891252 3.376202,5.92957 0.373531,2.038319 -0.02257,4.476861 -1.135017,6.30034 -1.112449,1.823479 -3.61041,3.968816 -5.539674,4.640537 -1.929264,0.67172 -4.176475,0.165662 -6.035908,-0.610212 -1.859434,-0.775875 -4.005188,-2.276908 -5.120694,-4.045035 -1.115505,-1.768126 -1.925748,-4.528459 -1.572337,-6.563725 0.353411,-2.035267 2.062147,-4.376008 3.692804,-5.647874 1.630656,-1.271866 5.03037,-1.66156 6.091135,-1.983322 1.060766,-0.321762 0.294168,-0.188115 0.273459,0.05275"
       stroke="#000000"
       stroke-width="0.7px"
       fill="none"
       id="path16" />
  </g>
  <g
     id="g18"
     transform="matrix(2.3671294,0,0,2.4412784,-39.098261,-38.317186)">
    <path
       d=""
       stroke="#000000"
       stroke-width="0.45px"
       fill="none"
       id="path17" />
    <path
       d="m 60.134209,43.276234 c 0.227374,0.04791 -0.125311,0.794931 -0.133909,0.961553 -0.0086,0.166623 -0.193154,-0.175228 0.08232,0.03818 0.275475,0.213409 1.589418,1.049871 1.570528,1.242273 -0.01889,0.192402 -1.273048,-0.079 -1.683871,-0.08786 -0.410823,-0.0089 -0.675245,-0.03217 -0.781068,0.03469 -0.105823,0.06686 0.176632,0.30265 0.146131,0.366476 -0.0305,0.06383 -0.239919,0.227412 -0.329136,0.01648 -0.08922,-0.210931 -0.217934,-0.890089 -0.206166,-1.282066 0.01177,-0.391978 -0.07307,-0.821826 0.276774,-1.0698 0.349842,-0.247974 1.522575,-0.532305 1.822277,-0.418044 m -1.063573,1.484541 c 0.437528,0.259374 1.16547,0.997054 1.139204,1.139829 -0.02626,0.142775 -1.414072,-0.08781 -1.296797,-0.28318 0.117275,-0.195371 2.027715,-1.152279 2.000447,-0.889048 -0.02727,0.26323 -1.599173,2.00489 -2.164051,2.468431 -0.564878,0.463541 -1.143644,0.682375 -1.225215,0.312815 -0.08157,-0.36956 0.6711,-2.079133 0.735787,-2.530174 0.06469,-0.45104 -0.623474,0.127787 -0.347664,-0.176068 0.275811,-0.303855 1.974856,-1.672006 2.002528,-1.647061 0.02767,0.02494 -1.529386,1.516181 -1.836497,1.79673 -0.307111,0.280548 -0.183037,0.03956 -0.0062,-0.113439"
       stroke="#000000"
       stroke-width="0.9px"
       fill="none"
       id="path18" />
  </g>
</svg>
