<?xml version="1.0" encoding="UTF-8" standalone="no"?>
<svg
   id="ghost1"
   viewBox="0 0 300 300"
   version="1.1"
   x="0px"
   y="0px"
   style="enable-background:new 0 0 336 235.2;"
   width="100%"
   height="100%"
   sodipodi:docname="ghost1.svg"
   inkscape:version="1.4 (e7c3feb1, 2024-10-09)"
   xmlns:inkscape="http://www.inkscape.org/namespaces/inkscape"
   xmlns:sodipodi="http://sodipodi.sourceforge.net/DTD/sodipodi-0.dtd"
   xmlns="http://www.w3.org/2000/svg"
   xmlns:svg="http://www.w3.org/2000/svg">
  <defs
     id="defs9" />
  <sodipodi:namedview
     id="namedview9"
     pagecolor="#ffffff"
     bordercolor="#111111"
     borderopacity="1"
     inkscape:showpageshadow="0"
     inkscape:pageopacity="0"
     inkscape:pagecheckerboard="1"
     inkscape:deskcolor="#d1d1d1"
     inkscape:zoom="1.5459028"
     inkscape:cx="129.69768"
     inkscape:cy="130.66799"
     inkscape:window-width="1512"
     inkscape:window-height="945"
     inkscape:window-x="0"
     inkscape:window-y="37"
     inkscape:window-maximized="0"
     inkscape:current-layer="ghost1" />
  <g
     transform="matrix(0.55656114,0,0,0.53140848,9.5661171,10.77711)"
     id="g9">
    <g
       id="g2">
      <path
         d="m 470.87554,59.317495 -7.04333,0.56735 -9.28361,2.879117 -96.87166,41.913288 -2.18352,-23.552858 -5.8058,-19.923573 -9.9863,-17.156215 L 326.50045,29.970736 311.81874,17.185384 295.06328,7.7827391 275.79003,2.3014999 255.2808,-0.01298905 235.99738,2.8508381 217.2634,7.1073146 l -18.17628,9.4482964 -15.00298,12.841101 -11.10451,14.92126 -9.25759,18.139413 -6.54123,17.215263 -1.56206,25.580932 -105.952501,-44.524494 -8.402499,-0.315678 -7.769507,1.122923 -8.999454,1.113631 -7.177328,4.624343 -6.032063,3.626612 -4.1351668,7.821994 -4.309766,6.572418 -1.87072447,6.835207 -0.74226264,7.708551 -0.27544194,4.605963 4.41173115,4.26277 28.2545477,0.52414 0.841494,156.02899 1.501976,4.94091 4.902068,2.25429 6.707852,-2.98713 2.179206,-6.02301 0.08639,-163.02814 0.518346,-2.982057 -5.791928,-3.252261 -26.59953,-2.479 7.756758,-8.319532 8.767156,-5.774909 7.990834,-1.284553 8.651111,2.560465 110.018812,46.502377 6.54906,-0.50178 2.79771,-2.83229 1.27861,-2.24303 1.82557,-27.496957 3.4551,-16.583685 5.92341,-14.50491 8.70912,-15.043194 11.53738,-10.393547 7.36425,-5.251892 14.2975,-7.701052 15.37215,-5.342235 16.36418,-1.223517 16.87918,1.727247 15.56345,5.622748 15.9213,6.906557 6.34145,5.930525 11.03782,10.21077 9.29177,13.52301 6.2806,14.513273 3.74882,17.324164 0.5898,27.022005 0.32415,3.72776 3.66347,2.54812 7.0053,-0.65392 114.60148,-48.587264 7.42823,0.553644 8.31733,2.473448 7.61522,6.494946 4.62647,7.08 -27.52634,0.712385 -2.83576,3.283944 -1.57306,3.107097 0.72303,360.05915 -3.25663,14.26433 -8.46512,11.67888 -10.28275,7.82992 -7.30339,1.86235 -6.56008,0.86798 -14.17277,-3.82835 -5.10541,-1.95045 -8.60709,-10.42859 -5.16375,-11.91043 -2.28252,-10.88795 -3.25258,-4.91106 -4.15732,-0.29248 -4.09151,1.57115 -4.0503,3.82346 -2.25906,17.59944 -7.14849,10.89638 -11.0913,7.12623 -7.03994,1.28801 -14.96258,0.84338 -6.66177,-2.27491 -10.59941,-7.79145 -7.65189,-10.72677 -1.97472,-16.56675 -5.46746,-5.13256 -2.2636,0.59353 -3.50337,-0.625 -4.86815,5.38227 -3.18472,15.32711 -7.9874,10.98587 -11.17384,7.81067 -6.42745,2.08333 -13.23107,0.13376 -7.8563,-1.35739 -9.31175,-6.76439 -7.47066,-11.52061 -4.49067,-16.96975 -4.68278,-4.02517 -1.66872,-2.04087 -4.92766,1.1773 -3.10813,4.54653 -3.80451,17.10823 -6.58893,11.4291 -12.5168,7.5974 -13.19273,2.89877 -12.57201,-2.91243 -11.61105,-7.46489 -7.87747,-11.62179 -3.46864,-17.34291 -3.30609,-3.02356 -3.33119,-1.87409 -3.89411,1.50994 -3.97271,3.71141 -3.03492,16.56101 -4.45182,5.20492 -8.39906,10.11686 -12.152347,4.66838 -7.303876,0.95245 -14.510855,-1.22338 -6.053582,-4.71257 -8.651975,-9.35225 -5.554083,-11.41646 -0.05512,-170.76336 -2.406625,-6.14217 -5.713152,-3.25208 -5.49293,2.87883 -3.245305,5.1931 -0.195822,163.94443 1.871993,10.01779 2.356882,10.77657 4.90072,8.71391 5.980185,7.44754 8.057354,6.41346 12.676752,6.45312 10.551174,2.08749 11.823543,-1.28107 6.549056,-1.32956 12.015313,-4.59319 10.34308,-6.54814 7.03722,-10.72741 7.61641,10.02808 10.09137,7.78309 13.21377,4.11336 12.74657,3.36609 12.93209,-3.57422 10.98927,-3.30839 10.4834,-7.95 8.16924,-9.71482 8.01698,9.47466 10.37295,7.17756 11.28603,6.05697 14.24303,1.0387 12.15175,-1.52041 10.95735,-4.73863 11.18317,-8.57234 7.84092,-9.43112 7.39903,11.21975 11.46816,7.12199 11.02525,4.20617 13.96019,0.76535 12.22286,-0.27436 12.04834,-5.23635 9.8096,-7.5599 8.52825,-9.35564 7.12063,10.02593 10.63918,6.03745 12.63463,5.00988 5.44884,2.19471 12.52414,-0.19562 8.60333,-1.21616 14.45642,-6.99788 8.19843,-7.16075 5.58819,-7.73867 4.85646,-8.32482 2.46475,-9.22544 1.9397,-10.14073 -1.47394,-352.08048 27.80182,-1.30876 5.23622,-4.45742 1.2079,-2.93568 -2.48788,-7.208668 -1.79062,-7.759835 -2.98415,-7.26584 -6.03029,-6.673676 -4.98003,-4.70231 -7.03619,-3.633695 -8.24106,-1.987134 -7.61429,-1.420619"
         stroke="none"
         stroke-width="0px"
         fill="#228b22"
         id="path1" />
      <path
         d="M 471.59248,59.526218 M 471.149,59.915 c -5.92325,-0.977702 -11.31001,1.530476 -16.49764,2.548818 m 16.72761,-2.770582 c -5.75981,0.789757 -10.95639,0.181667 -17.21854,4.267621 m 1.5681,-0.02394 C 434.91028,70.91212 415.65769,79.12341 357.23491,104.34086 m 98.42346,-40.808348 c -38.26787,15.278195 -76.007,32.032652 -99.19503,41.097258 m 0.12458,-0.0688 c 0.0718,-1.05097 0.24943,-1.64959 0.21272,-3.88617 m -0.009,3.91587 c -0.0364,-0.82735 -0.0261,-1.73811 0.004,-3.89782 m -0.029,0.0742 C 355.91132,45.271664 310.79109,0.98745165 256.73436,0.59452249 M 357.7364,100.77727 C 357.43117,44.680831 312.71202,-0.16691919 255.92434,0.7143903 M 256,0 C 200.14623,0.3765906 154.4169,44.534537 154.25991,100.89137 M 256.63355,0.95594692 C 199.3758,-0.72473652 154.94638,44.987 154.47865,101.79217 m 0.76108,-1.15761 c -0.14458,1.56299 -0.14812,3.05781 0.1359,4.05491 m -0.23465,-3.97545 c 0.14814,1.03686 0.0574,1.85546 0.18429,3.8822 m -0.96373,-0.12159 C 119.84563,88.854586 84.003631,73.737774 56.665797,63.956543 M 155.4089,104.49041 C 116.05299,88.466931 77.145833,72.210958 56.883006,63.369532 M 56.693,63.103 C 50.729242,60.76239 45.608235,59.873723 39.882998,59.733797 m 16.473876,4.131279 C 52.705087,60.518443 46.439571,60.420733 41.285525,60.379246 M 40.852,59.914 C 18.832373,60.551021 0.68541593,78.047647 -0.77670427,100.43713 M 40.02266,60.348296 C 17.625352,59.727715 -0.45303095,77.680767 0.37958026,101.37459 M 0,100.766 c 0.07190506,4.51758 2.8255525,8.70852 7.5392029,8.16066 m -6.74801866,-8.14011 c -1.71123991,3.42027 2.34340806,9.251 7.87427296,7.15832 m -0.3087055,1.71814 C 15.677688,108.80435 23.963263,108.0158 33.648591,109.01485 M 8.0681106,108.7673 c 6.6657934,0.5851 12.5851104,0.36228 24.7124124,-0.22775 m 0.595497,-0.0162 c -0.769201,42.55882 -0.999239,83.39243 -0.553965,155.63176 M 32.95147,108.9981 c -1.392686,51.93736 -0.793524,104.61399 -0.331212,155.35208 m 0.06074,0.0918 c -0.431774,5.35784 3.104504,7.99745 7.754944,8.84017 m -7.539214,-9.52764 c 0.885989,5.17054 4.070399,8.31218 8.635464,9.26261 M 40.851,272.612 c 4.479267,0.094 7.899512,-3.87462 7.322599,-8.01506 m -7.338602,8.28279 c 5.194175,-1.04313 9.190009,-3.15362 8.918049,-7.3791 m -0.02471,-1.90982 C 49.548338,216.07512 49.541498,169.32393 48.915159,101.6592 M 48.688286,264.22744 C 48.091126,203.55995 48.359222,141.75238 49.284668,100.7131 M 49.021,100.766 c -0.847793,-4.320016 -3.337594,-8.517408 -8.063327,-8.741187 m 8.006618,8.605717 C 48.517368,97.205946 46.156903,91.738339 41.55557,93.741319 m -0.151556,-1.138563 c -9.91609,-0.67087 -19.501447,-0.064 -24.389366,0.832102 m 23.665243,-0.968829 c -7.202696,0.263237 -14.441527,0.01255 -22.580102,-0.175874 M 17.74,92.596 C 20.606108,83.897977 29.293369,75.716655 40.528702,76.730947 M 17.100654,92.887832 C 20.331267,83.072002 30.409201,76.483565 40.809136,75.960598 M 40.851,76.256 c 3.859643,-0.486214 7.317918,1.131513 9.728817,2.463602 m -9.275677,-2.36037 c 2.213533,0.178195 5.60878,1.674096 9.61375,1.725749 m -1.381031,-0.08676 C 74.125308,88.885663 95.840935,98.938153 159.70398,125.12253 M 50.691003,77.997105 C 80.119015,91.547645 109.70379,103.9207 159.93212,124.78164 M 160.234,124.428 c 2.17388,1.9873 4.5087,1.50235 8.53034,-1.47338 m -9.50403,1.89394 c 4.20906,1.23543 6.466,0.35995 8.53313,-0.0884 M 167.924,123.705 c 2.40537,-1.88622 4.30701,-3.23511 4.44153,-6.5606 m -4.67957,5.84293 c 2.54126,0.2366 4.46859,-3.65775 4.54956,-4.97588 m -0.40502,-1.3728 c -0.01,-3.37394 -0.34142,-7.87844 -0.90876,-16.17283 m 0.61985,16.09745 c -0.10058,-4.03813 -0.3319,-9.38248 0.19742,-15.4452 M 171.576,100.767 c 0.47203,-46.710054 38.53059,-83.502683 85.01498,-84.895405 M 170.88181,101.37307 C 172.5257,54.961399 209.00257,17.17546 256.44023,16.861739 M 256.002,16.341 c 45.71889,-0.350009 84.48752,37.669662 84.60215,84.24915 M 255.69707,16.136196 c 47.74713,-0.06273 85.22414,38.937584 84.77735,83.801408 m -0.54706,1.459546 c 0.91139,3.14343 1.01722,5.81519 0.23269,15.89747 m 0.40632,-16.18963 c -0.12914,4.66366 -0.1955,10.43054 -0.32901,15.88807 m 0.19064,-0.0941 c -0.52727,2.90396 1.71954,5.42824 4.44563,6.81874 m -4.06555,-6.24842 c -0.34649,1.53913 2.07853,4.76338 2.90369,7.08695 M 344.08,123.705 c 2.74113,1.67146 6.1017,2.62597 7.68652,1.46994 m -6.77265,-1.8098 c 0.90606,2.24206 3.30319,2.19218 5.8137,0.68926 m 1.1486,0.16843 c 40.68251,-16.5981 80.35858,-34.085227 109.85887,-46.13162 m -110.37628,46.20616 c 27.76185,-11.93284 55.82626,-23.77485 110.13981,-45.633883 M 461.65,78.164 c 3.42076,-1.260636 6.49225,-1.624365 9.08774,-1.601181 m -8.54771,0.683966 c 1.35702,-1.256437 6.01311,-1.655815 10.1036,-1.225337 M 471.149,76.255 c 11.52794,0.3795 20.13734,7.140869 23.85268,16.446228 M 471.89489,76.666546 c 9.29218,0.487162 19.21332,7.508157 21.44053,16.220124 m 1.82305,-0.64971 c -6.44744,0.918174 -14.33875,1.040053 -24.65609,0.631208 m 23.40035,-0.759998 c -6.57699,0.194066 -12.74641,0.769078 -22.42691,0.138936 M 471.149,92.595 c -5.35203,-0.425037 -8.38362,3.707218 -8.01908,9.02715 m 7.59476,-8.906516 c -2.99773,0.928882 -6.84437,3.755189 -8.35958,8.198166 m 0.35354,0.41622 c -0.55178,130.30549 -0.87929,261.38331 0.33659,359.26196 m 0.0562,-359.61805 c -0.599,86.80198 -0.60965,173.84724 0.0439,359.97674 M 462.979,460.8 c 0.75052,18.98956 -16.22941,35.0415 -34.85028,34.36265 m 35.03157,-33.53253 c 0.26778,18.30977 -15.08589,33.55328 -35.35001,34.47955 M 428.119,495.66 c -20.02945,0.65166 -34.18873,-15.19758 -34.27085,-35.73508 m 34.35493,36.07819 c -18.5765,-0.1434 -34.14149,-16.54976 -35.95494,-35.23611 m 1.01086,0.033 c -0.13651,-4.64391 -3.85451,-8.59716 -8.63166,-7.70023 m 9.51097,7.90492 c -1.43487,-5.7932 -3.62259,-8.86651 -8.73688,-9.28984 M 385.089,452.63 c -5.10551,0.56327 -8.00934,3.36435 -8.34944,8.15261 m 7.62728,-7.16829 c -4.84454,-1.05013 -6.67374,2.09103 -6.6786,6.39976 M 376.919,460.8 c -0.83401,19.69147 -16.29146,33.8652 -34.24628,34.51373 m 34.89618,-33.81597 c -1.65412,18.28507 -15.66485,33.93953 -35.16521,35.14335 M 342.059,495.66 c -19.89617,0.20076 -34.46593,-15.13472 -35.05529,-34.78807 m 35.5636,34.57426 c -20.41566,0.46695 -35.84843,-15.20709 -34.94266,-34.93171 M 307.199,460.8 c -0.65208,-4.53894 -2.92559,-7.55213 -8.18742,-8.36065 m 8.53791,8.27466 c -1.03387,-3.81695 -4.5654,-7.65621 -8.50528,-7.90056 M 299.029,452.63 c -3.7349,0.46765 -8.69207,3.67509 -8.07033,7.24021 m 8.03395,-7.59334 c -5.03688,0.76527 -8.14835,2.87051 -7.46312,9.07745 M 290.859,460.8 c 0.90978,19.52386 -15.25945,35.0247 -35.85512,35.50507 m 35.13053,-35.90624 c 1.46425,20.49012 -14.20039,35.61474 -33.15631,34.88285 M 255.999,495.66 c -19.32479,-0.94522 -34.00993,-15.41194 -35.55975,-35.45108 m 34.84373,36.27471 c -19.26091,0.17961 -34.4654,-17.1275 -33.0523,-36.35477 M 221.139,460.8 c -0.2509,-4.48528 -4.50703,-7.73869 -9.13621,-7.96531 m 9.47014,8.19114 c 0.40677,-3.74525 -4.71619,-9.09988 -8.00336,-7.7664 M 212.969,452.63 c -3.71228,0.21238 -7.63941,2.84168 -8.4132,7.85871 m 8.98757,-7.11793 c -5.61363,-1.24336 -8.64677,2.56526 -8.58406,7.27012 M 204.799,460.8 c 0.60356,19.06912 -15.40702,35.13506 -35.02932,34.02209 m 34.95618,-34.9673 c -0.1629,19.56262 -14.88979,36.85427 -33.93717,35.36995 M 169.939,495.66 c -18.5132,-0.29353 -35.69096,-15.82019 -34.69306,-35.57933 m 34.094,34.77809 c -18.82502,-0.0317 -33.75446,-13.97991 -33.21234,-34.71137 M 135.079,460.8 c 0.8936,-5.23514 -3.03784,-7.82695 -8.81435,-7.54882 m 9.07976,8.06787 c -1.2522,-5.42571 -3.35825,-7.65696 -7.60459,-9.78828 M 126.909,452.63 c -4.37563,0.78841 -7.88187,4.45451 -7.21805,7.67053 m 7.15126,-7.72035 c -5.28299,0.96242 -8.21798,3.67312 -7.71446,7.44333 M 118.739,460.8 c 0.61294,18.48922 -16.57112,35.1018 -34.695491,34.84759 M 117.7522,460.83261 c -0.11672,18.70434 -14.14476,34.2138 -34.164439,34.9906 M 83.879,495.66 C 65.17543,495.61344 48.986459,479.37272 48.841329,460.88456 m 35.882998,33.80761 c -19.38347,2.0422 -35.921984,-13.79516 -35.254276,-33.10438 m -1.189634,0.16706 c -0.915285,-48.95815 0.790411,-95.31307 1.438111,-163.66169 m -0.360465,162.41118 c 0.292346,-37.78958 -0.0046,-76.63522 0.03409,-163.84888 M 49.019,297.123 c 0.171199,-4.44967 -3.505525,-9.06149 -8.873422,-8.04901 m 8.786024,7.29901 c 1.122939,-2.91689 -3.71284,-7.40649 -7.795841,-7.32638 M 40.849,288.953 c -4.308511,-0.49845 -9.133824,3.41238 -7.411971,7.44789 m 7.45406,-7.81971 c -5.702724,0.51235 -7.829841,4.40548 -8.561166,8.00233 m 0.319825,1.12253 c -0.664318,43.52239 0.116576,87.42353 0.02758,163.80514 m -0.0445,-164.54755 c -1.160298,50.29812 -0.996041,101.52588 0.08798,163.76499 M 32.679,460.8 c -0.0714,29.07658 23.69789,50.20442 51.294063,50.99133 M 33.634797,460.97164 c 0.07873,28.28142 22.328662,50.40115 50.476311,50.21558 M 83.879,512 c 17.57885,-0.12379 33.92714,-9.71951 43.7602,-23.33572 m -43.10669,24.27841 c 16.29451,-1.02177 33.22959,-10.95502 42.91292,-24.89183 M 126.909,488.521 c 8.18434,14.03661 25.60243,22.72276 42.84426,22.51305 m -43.01135,-22.1878 c 8.20732,14.89569 26.20703,24.12914 43.13132,23.21752 M 169.94,512 c 17.07053,-0.1896 33.01669,-8.96614 43.7199,-23.68745 m -43.79862,23.82922 c 18.1706,-0.63469 33.70625,-10.15195 43.7466,-24.434 M 212.97,488.521 c 9.10237,14.97594 25.65612,23.12252 42.16779,22.50645 m -41.52798,-21.8948 c 8.61959,14.06767 24.51232,22.80609 41.95059,23.11422 M 256,512 c 18.18152,-0.75727 33.80697,-9.72639 43.8839,-24.13756 m -43.27565,24.01768 c 18.39026,0.0358 33.4579,-9.06287 42.74867,-22.67274 M 299.03,488.521 c 9.0747,14.42312 24.84185,24.03711 43.52994,22.65293 m -43.47286,-22.0268 c 9.78117,12.56337 25.6941,23.20481 42.51663,23.25567 M 342.06,512 c 17.28654,-0.0477 33.4233,-8.69311 43.20482,-24.09636 m -42.90286,24.89925 c 16.68223,-1.47448 33.6381,-10.69424 43.34071,-24.02517 M 385.09,488.521 c 9.73117,13.6352 25.54074,23.54107 42.31319,23.70138 m -41.37187,-23.15343 c 9.22501,14.67305 24.62442,23.59756 41.18682,22.13777 M 428.12,512 c 27.62304,-0.51989 50.38475,-22.25486 51.63204,-50.32814 m -51.66202,49.39805 c 28.83493,-0.0853 50.57964,-22.37986 51.33887,-50.85559 m 0.0934,0.47953 c 0.49364,-84.49399 0.72301,-169.33117 0.11247,-351.92312 m -0.59593,352.06368 c 0.18663,-74.54042 0.26463,-148.95159 0.22159,-351.98553 m -0.63934,0.14938 c 8.41402,-0.55625 16.5203,-0.87415 24.71716,0.40734 m -24.32865,-0.3077 c 6.581,0.2834 11.78373,-0.19896 24.45185,0.007 m 0.36956,-0.1689 c 5.00517,0.43078 8.65895,-3.65216 8.64011,-8.11698 m -8.12398,7.69879 c 3.15433,-0.72368 7.11548,-3.89345 7.5174,-7.69344 M 512.001,100.766 C 511.60083,78.556891 493.93126,60.31255 471.63361,59.720164 m 41.03524,41.758066 C 511.31294,78.999303 492.59302,59.107703 472.15987,60.126811 M 471.149,59.915 c 0,0 0,0 0,0 m 0,0 c 0,0 0,0 0,0"
         stroke="#000000"
         stroke-width="4px"
         fill="none"
         id="path2" />
    </g>
    <g
       id="g4">
      <path
         d="m 220.73412,68.865522 c 4.03992,-0.38911 8.57883,1.779554 12.00162,4.452921 3.42278,2.673368 7.39827,7.253553 8.53507,11.587287 1.13681,4.333734 0.51999,10.547189 -1.71423,14.415117 -2.23423,3.867923 -7.64542,7.327823 -11.69112,8.792453 -4.04571,1.46462 -8.54555,1.33209 -12.58311,-0.005 -4.03755,-1.33682 -9.25782,-4.33918 -11.64222,-8.01618 -2.38439,-3.676991 -3.37124,-9.746924 -2.66414,-14.045794 0.70709,-4.29887 3.26524,-8.716074 6.90673,-11.747421 3.6415,-3.031347 12.25978,-5.6437 14.94225,-6.44066 2.68246,-0.796961 1.1633,1.206796 1.15255,1.658898 m 5.65337,0.954741 c 3.5866,1.278156 6.81318,5.471247 8.66431,9.526147 1.85112,4.054899 3.35689,10.296737 2.44241,14.80325 -0.91448,4.506513 -4.30972,10.049579 -7.9293,12.235829 -3.61959,2.18626 -9.51682,1.34138 -13.7882,0.8817 -4.27138,-0.45968 -8.84549,-0.85304 -11.84009,-3.63977 -2.99459,-2.78674 -5.88959,-8.354327 -6.12749,-13.080644 -0.23789,-4.726318 2.09769,-11.778591 4.70013,-15.277263 2.60244,-3.498672 6.7505,-4.740708 10.9145,-5.714769 4.164,-0.974062 12.02165,-0.33765 14.06952,-0.1296 2.04786,0.208051 -1.38124,0.905504 -1.78234,1.377902"
         stroke="none"
         stroke-width="0px"
         fill="#ffffff"
         id="path3" />
      <path
         d="m 214.1129,69.04464 c 3.97779,-1.580983 10.22694,-0.203608 14.40283,1.461394 4.1759,1.665002 8.61799,4.713283 10.65255,8.52862 2.03456,3.815337 2.40568,10.033195 1.55481,14.3634 -0.85087,4.330206 -3.25871,9.133306 -6.66002,11.617836 -3.40131,2.48453 -9.28132,3.31158 -13.74781,3.28934 -4.46649,-0.0222 -9.98474,-0.81941 -13.05113,-3.4228 -3.06638,-2.60338 -4.63438,-7.973551 -5.34718,-12.197515 -0.71279,-4.223963 -1.28719,-9.280832 1.07042,-13.146261 2.35762,-3.865429 10.49374,-8.210703 13.07526,-10.046311 2.58152,-1.835609 2.45045,-1.203078 2.41386,-0.967339 m 0.20377,1.869338 c 4.11159,-1.248215 8.01374,-1.529726 11.6941,0.327081 3.68036,1.856807 8.78087,6.687118 10.38805,10.813762 1.60718,4.126644 0.7084,10.035205 -0.74497,13.946101 -1.45337,3.910895 -4.33388,7.337534 -7.97525,9.519274 -3.64136,2.18173 -9.56521,3.97378 -13.87293,3.57113 -4.30773,-0.40264 -9.27752,-2.50429 -11.97341,-5.987 -2.69589,-3.482707 -4.28533,-10.462493 -4.20192,-14.909238 0.0834,-4.446744 2.29091,-8.636936 4.70236,-11.771228 2.41146,-3.134292 7.94651,-6.031774 9.76638,-7.034525 1.81987,-1.002751 1.05258,0.435103 1.15284,1.01802"
         stroke="#000000"
         stroke-width="3px"
         fill="none"
         id="path4" />
    </g>
    <g
       id="g5">
      <path
         d="m 220.45747,88.315183 c 0.34242,0.188562 2.1663,0.237138 2.47899,0.460338 0.31269,0.2232 -0.59693,0.829101 -0.60285,0.878862 -0.006,0.04976 0.83202,-0.565304 0.56731,-0.580297 -0.2647,-0.01499 -1.75473,0.234949 -2.15555,0.490337 -0.40081,0.255388 -0.17203,0.936226 -0.24933,1.04199 -0.0773,0.105764 -0.13855,-0.236186 -0.21446,-0.407408 -0.0759,-0.171222 -0.31824,-0.191311 -0.24098,-0.619924 0.0772,-0.428613 0.35477,-1.680806 0.70452,-1.951753 0.34976,-0.270947 1.16433,0.365169 1.39402,0.32607 0.22968,-0.0391 0.27861,-0.491828 -0.0159,-0.560664 m -0.73675,0.110439 c 0.54602,-0.198906 1.69642,-0.449985 1.84556,0.04718 0.14915,0.497167 -0.73575,2.539372 -0.95071,2.93582 -0.21497,0.396448 -0.072,-0.668543 -0.33906,-0.557132 -0.26707,0.11141 -0.72995,1.342995 -1.26337,1.225596 -0.53342,-0.117398 -1.85092,-1.614458 -1.93713,-1.929987 -0.0862,-0.315529 1.23617,0.06174 1.41988,0.03681 0.18372,-0.02492 -0.32057,0.120646 -0.31758,-0.18635 0.003,-0.306996 0.20497,-1.311062 0.33554,-1.655627 0.13058,-0.344565 0.26919,-0.382154 0.4479,-0.411763 0.17871,-0.02961 0.48169,0.04125 0.62437,0.234106"
         stroke="#000000"
         stroke-width="3px"
         fill="none"
         id="path5" />
    </g>
    <g
       id="g7">
      <path
         d="m 281.4085,71.415469 c 3.4866,-1.890361 10.11495,-1.55141 14.16513,-0.425583 4.05018,1.125827 7.94527,4.008595 10.13592,7.180544 2.19066,3.171948 3.22679,7.84133 3.00802,11.851146 -0.21878,4.009816 -1.49449,9.154445 -4.32066,12.207754 -2.82617,3.0533 -8.46815,5.71293 -12.63638,6.11207 -4.16823,0.39914 -8.95934,-1.13356 -12.373,-3.71724 -3.41367,-2.58367 -6.78057,-7.902091 -8.109,-11.784799 -1.32843,-3.882708 -1.79408,-7.938303 0.13841,-11.511446 1.93249,-3.573143 9.0785,-8.154955 11.45651,-9.927411 2.378,-1.772455 2.58232,-0.857256 2.81152,-0.707323 m 0.54292,1.118351 c 3.89441,-1.327966 9.52076,-2.666133 13.34947,-0.912125 3.82872,1.754007 7.93959,7.623514 9.62283,11.43617 1.68323,3.812656 1.95869,7.884741 0.47659,11.439766 -1.4821,3.555025 -5.55491,7.404997 -9.36919,9.890387 -3.81427,2.48539 -9.64746,5.18946 -13.51645,5.02194 -3.86899,-0.16752 -7.1324,-3.04216 -9.69749,-6.02706 -2.56509,-2.98489 -5.35812,-7.59697 -5.69307,-11.882303 -0.33495,-4.285334 1.49985,-10.651459 3.68336,-13.829694 2.18351,-3.178234 7.94742,-4.387935 9.41769,-5.239714 1.47027,-0.85178 -0.79175,0.166877 -0.59607,0.129037"
         stroke="none"
         stroke-width="0px"
         fill="#ffffff"
         id="path6" />
      <path
         d="m 287.3765,69.422144 c 3.78734,-0.875619 9.43984,-0.15674 12.98526,2.156019 3.54542,2.312759 7.05077,7.745188 8.28725,11.720535 1.23647,3.975348 0.75963,8.363572 -0.86841,12.13155 -1.62804,3.767978 -5.27608,8.541602 -8.89981,10.476322 -3.62373,1.93472 -8.65762,1.92317 -12.84258,1.13201 -4.18497,-0.79116 -9.74549,-2.70296 -12.2672,-5.87899 -2.52171,-3.176033 -2.94241,-8.899991 -2.86306,-13.177205 0.0794,-4.277214 0.2836,-9.485689 3.33918,-12.486078 3.05557,-3.00039 12.30622,-4.650569 14.99428,-5.516261 2.68806,-0.865692 1.25048,0.07841 1.13408,0.322107 m -0.289,-1.310433 c 3.92789,-0.05581 9.8838,3.386433 13.07968,6.262195 3.19588,2.875763 5.67099,7.165958 6.09562,10.992378 0.42463,3.82642 -1.23479,8.545295 -3.54785,11.966143 -2.31306,3.420844 -6.57202,7.259294 -10.3305,8.558944 -3.75848,1.29965 -8.53001,0.38289 -12.2204,-0.76104 -3.69038,-1.14393 -7.58106,-2.91455 -9.92193,-6.10254 -2.34087,-3.187989 -4.76447,-8.567394 -4.12328,-13.025397 0.64118,-4.458002 4.51727,-11.098338 7.97039,-13.72262 3.45312,-2.624282 10.6551,-1.639518 12.74833,-2.023073 2.09323,-0.383555 -0.1871,-0.286757 -0.18893,-0.278255"
         stroke="#000000"
         stroke-width="3px"
         fill="none"
         id="path7" />
    </g>
    <g
       id="g8">
      <path
         d="m 290.85109,87.285221 c 0.221,0.06006 -0.99347,0.748083 -0.79249,0.908342 0.20098,0.160259 1.93376,-0.220862 1.99838,0.05321 0.0646,0.274074 -1.23967,1.286432 -1.61064,1.591232 -0.37096,0.3048 -0.58862,0.230449 -0.61516,0.237568 -0.0265,0.0071 0.80894,-0.241436 0.45596,-0.194856 -0.35299,0.04658 -2.37708,0.799389 -2.57386,0.474334 -0.19678,-0.325056 1.17994,-1.997623 1.39318,-2.424666 0.21323,-0.427042 -0.35474,-0.211001 -0.11376,-0.137589 0.24099,0.07341 1.40886,0.557268 1.55967,0.57806 0.15082,0.02079 -0.60396,-0.479145 -0.6548,-0.453308 m -0.80849,0.278254 c 0.23717,-0.24141 1.41791,-1.475502 2.08033,-1.50412 0.66241,-0.02862 1.81981,0.989909 1.89416,1.332416 0.0743,0.342506 -0.86438,0.121497 -1.4481,0.722625 -0.58371,0.601127 -1.81097,2.499149 -2.05418,2.884138 -0.24321,0.384989 0.63189,-0.314077 0.59492,-0.574204 -0.037,-0.260128 -0.66888,-0.654062 -0.81676,-0.98656 -0.14788,-0.332497 -0.19919,-0.397621 -0.0705,-1.008425 0.12867,-0.610803 0.89603,-2.634969 0.84252,-2.656395 -0.0535,-0.02143 -0.97029,2.485742 -1.16357,2.52784 -0.19328,0.0421 -0.39171,-2.105451 0.004,-2.275249"
         stroke="#000000"
         stroke-width="3px"
         fill="none"
         id="path8" />
    </g>
  </g>
</svg>
